<svg width="160" height="115" fill="none" xmlns="http://www.w3.org/2000/svg"><path d="M47.65 71.512c1.074 7.976 4.366 17.488 8.318 23.976 2.658 4.341 6.95 9.195 10.073 11.341 1.829 1.269 5.39 3.049 7.341 3.634 10.293 3.171 21.049-1.804 28.707-13.243 3.171-4.78 5.635-10.366 7.903-18.074.293-.975 1.366-6.268 1.561-7.756l.171-1.146h14.097c0 .683-.756 4.22-1.585 7.073-5.025 17.22-17.244 30.854-32.073 35.756-13.05 4.293-26.976 1.708-38.415-7.146-4.463-3.464-9.512-9.195-12.61-14.342-.951-1.56-3.292-6.195-3.975-7.804-1.342-3.22-3.317-9.854-3.659-12.39l-.17-1.147H47.48l.17 1.268zm0-27.922c1.074-7.976 4.366-17.489 8.318-23.976 2.658-4.342 6.95-9.196 10.073-11.342 1.829-1.268 5.39-3.049 7.341-3.634 10.293-3.17 21.049 1.805 28.707 13.244 3.171 4.78 5.635 10.366 7.903 18.073.293.976 1.366 6.268 1.561 7.756l.171 1.147h14.097c0-.683-.756-4.22-1.585-7.074-5.025-17.22-17.244-30.853-32.073-35.756C79.113-2.264 65.187.321 53.748 9.175c-4.463 3.463-9.512 9.195-12.61 14.341-.951 1.561-3.292 6.195-3.975 7.805-1.342 3.22-3.317 9.854-3.659 12.39l-.17 1.147H47.48l.17-1.269z" fill="#fff"/><path fill-rule="evenodd" clip-rule="evenodd" d="M25.018 52.71c1.268.61 1.811 1.413 1.811 2.925 0 1.269-.616 2.174-2.03 2.832l-.897.34L25.36 61.1l1.713 2.561h-1.097l-1.568-2.439-1.603-2.417h-3.293v4.878h-.975V52.221h2.683c2.268 0 2.92.075 3.798.49zm-3.341 5.342h-2.195V52.93h2.097c2.415 0 3.585.415 4.122 1.488.397.852.346 1.508 0 2.17-.585 1.123-1.512 1.464-4.024 1.464z" fill="#fff"/><path d="M33.872 52.93h5.884v-.73h-6.86v11.463h6.86v-.732h-5.884v-4.878h5.396v-.723l-1.64-.008h-3.756v-4.39zm12.683 4.39h7.317v-5.1h1.006v11.464h-1.006v-5.632h-7.317v5.632h-.976V52.221h.976v5.1zm38.902-.121c-1.17 2.756-2.164 5.388-2.164 5.144L78.78 52.22h-.975l5.122 11.463h.731l4.879-11.463h-.976l-.845 2.15-1.259 2.828zm19.909-4.979v.832h3.994v10.61h.975v-10.61h3.811v-.831h-8.78zm48.994 6.906l-4.726-6.927h.976l4.189 6.122 4.225-6.122H160l-4.831 6.927v4.558h-.809v-4.558zm-57.396 4.798c-.969 0-1.776-.15-2.422-.453-.646-.313-1.13-.734-1.453-1.266a3.502 3.502 0 01-.485-1.828h.844c0 .52.12.99.36 1.406.25.417.635.75 1.156 1 .52.24 1.188.36 2 .36 1.136 0 1.99-.235 2.563-.703.583-.48.875-1.094.875-1.844 0-.615-.229-1.136-.688-1.563-.458-.438-1.156-.703-2.094-.797l-1.36-.11c-.947-.083-1.697-.38-2.25-.89-.552-.52-.828-1.208-.828-2.063 0-.604.141-1.146.422-1.625.292-.49.714-.875 1.266-1.156.563-.292 1.255-.438 2.078-.438.834 0 1.537.156 2.11.469.573.302 1.005.713 1.297 1.234.302.51.453 1.09.453 1.735h-.844c0-.469-.104-.901-.312-1.297-.209-.406-.537-.734-.985-.984-.437-.25-1.01-.376-1.719-.376-.687 0-1.244.115-1.672.344-.427.219-.745.516-.953.89a2.482 2.482 0 00-.297 1.204c0 .625.198 1.125.594 1.5.406.375.984.6 1.735.672l1.36.11c1.135.104 2.005.448 2.609 1.031.614.573.922 1.276.922 2.11a3.03 3.03 0 01-.5 1.719c-.334.5-.823.896-1.47 1.187-.635.282-1.406.422-2.312.422z" fill="#fff"/><path fill-rule="evenodd" clip-rule="evenodd" d="M126.238 52.685c1.268.61 1.811 1.413 1.811 2.925 0 1.268-.616 2.173-2.031 2.831l-.896.34 1.457 2.294 1.714 2.561h-1.098l-1.567-2.439-1.604-2.416h-3.292v4.878h-.976V52.195h2.683c2.268 0 2.921.076 3.799.49zm-3.342 5.342h-2.195v-5.122h2.098c2.414 0 3.585.414 4.122 1.488.396.851.345 1.508 0 2.17-.586 1.122-1.513 1.464-4.025 1.464z" fill="#fff"/><path d="M12.927 57.927c0 3.435-2.894 6.22-6.464 6.22-3.57 0-6.463-2.785-6.463-6.22 0-3.435 2.894-6.22 6.463-6.22 3.57 0 6.464 2.785 6.464 6.22zm-12.058 0c0 2.973 2.505 5.383 5.594 5.383 3.09 0 5.595-2.41 5.595-5.383s-2.505-5.384-5.595-5.384S.87 54.953.87 57.927zm72.79 0c0 3.435-2.894 6.22-6.464 6.22-3.57 0-6.463-2.785-6.463-6.22 0-3.435 2.894-6.22 6.463-6.22 3.57 0 6.464 2.785 6.464 6.22zm-12.058 0c0 2.973 2.504 5.383 5.594 5.383 3.09 0 5.595-2.41 5.595-5.383s-2.505-5.384-5.595-5.384-5.594 2.41-5.594 5.384zm84.497 0c0 3.435-2.894 6.22-6.464 6.22-3.57 0-6.463-2.785-6.463-6.22 0-3.435 2.893-6.22 6.463-6.22 3.57 0 6.464 2.785 6.464 6.22zm-12.058 0c0 2.973 2.504 5.383 5.594 5.383 3.09 0 5.595-2.41 5.595-5.383s-2.505-5.384-5.595-5.384-5.594 2.41-5.594 5.384z" fill="#fff"/></svg>